<svg viewBox="0 0 83 42" fill="none" xmlns="http://www.w3.org/2000/svg">
    <path d="M3.12019 9.51808H1.44327L0.5 8.89179V7.01293H2.38654L1.75769 4.50778L12.5529 5.86473L13.601 4.50778L18.6317 4.9253L18.0029 7.01293L15.9067 8.2655L17.4789 8.99617L18.0029 8.36988L20.7279 7.84798L21.5664 9.51808H22.5096V12.3364L18.0029 11.8145L18.3173 13.4846L14.649 15.781V17.2423H14.0202L13.0769 15.9897L10.876 16.616L10.1423 18.1817L11.5048 18.7036V19.8518L13.0769 20.2694L13.1817 21.4175H17.8981L19.051 22.6701H20.5183V23.8183L22.9289 24.1315L24.8154 27.2629L23.0337 29.0374L23.4529 31.4382L18.9462 35.3003L18.8414 38.8492L20.0991 39.4755L19.4702 41.25L16.9548 39.893L17.2692 38.1186L16.2212 37.3879V30.9163L14.0202 29.6637L14.649 27.8892L12.6577 26.1147V24.3402L13.4962 24.1315L13.9154 22.8789L13.2865 22.2526L12.2385 22.8789L12.0289 21.4175L10.5615 21V20.4781L6.78846 19.5387L7.41731 18.1817L5.42596 16.3029L5.8452 11.8145L6.99808 11.7101L7.2077 9.9356L6.26443 8.47427L3.32981 8.2655L3.12019 9.51808Z" fill="white" fill-opacity="0.1" />
    <path d="M21.9856 7.22164L19.8894 6.80412L20.3087 5.44716L19.3654 3.5683V2.4201L25.1298 0.75L28.7981 3.04639L29.3221 5.55154L26.3875 6.69974L24.8154 9.51803L23.5577 9.1005L21.9856 7.22164Z" fill="white" fill-opacity="0.1" />
    <path d="M82.25 7.22162L81.5163 5.96904L77.2192 6.59533L75.9615 5.13399L70.6163 4.19456L66.0048 5.13399L63.8038 3.04636H56.1529L54.4759 4.19456V5.13399L52.275 5.76028L51.9606 5.13399H47.9779L44.3096 3.88141L41.6894 5.13399L40.7461 7.63914L41.4798 8.9961H43.0519L43.3663 7.95229L44.5192 7.53476L44.7288 10.1443L41.7942 11.1881L41.4798 9.72677L40.1173 9.51801V11.1881L38.3355 11.71L37.6019 12.8582L38.1259 13.902H36.449L36.8682 16.094H38.5452L38.8596 14.9458L40.4317 15.0502L41.4798 14.4239L42.5279 15.6765L42.1086 16.8247L43.4711 16.1984L42.8423 14.4239L43.4711 14.1108L44.9384 15.9896L46.5106 15.3634L47.8731 16.8247L47.5586 18.1817L44.1 19.0167L42.1086 18.1817L41.4798 16.8247L38.5452 16.7203L34.3529 20.0605L34.0384 22.4613L33.4096 22.8788V25.1752L35.925 27.2628H39.698L41.0606 28.0979L41.1654 30.1855L42.7375 30.9162L42.2134 35.4046L43.3663 37.0747L43.5759 39.7886L46.4057 40.3105L49.2355 37.5966L49.1307 34.3608L51.1221 32.795L51.2269 28.9329L53.2182 26.8453L52.9038 25.2796L50.2836 24.5489L50.1788 22.8788L49.1307 21.7306L49.2355 20.0605H49.9692L51.7509 22.4613L51.6461 23.8183L52.5894 24.1314L55.524 22.3569L53.3231 19.0167L55.2096 18.9123L55.6288 20.1649L57.8298 21.7306L59.4019 22.3569L59.1923 24.5489L62.2317 27.3672L64.1182 22.2525L65.7952 22.5657L66.9481 25.6971L68.1009 26.8453L67.9961 24.7577H68.5202L69.149 25.4883L70.9308 24.4445L70.8259 20.5824L72.3981 20.1649L72.9221 18.1817L71.35 16.4072L72.2933 14.7371H73.1317L75.8567 8.89172L76.9048 9.51801V11.1881L77.9529 11.71L79.2106 8.9961L82.25 7.22162Z" fill="white" fill-opacity="0.1" />
    <path d="M53.428 32.5863H52.9039L51.9606 34.0476V36.0309L52.6943 36.8659L53.428 36.4484L54.1616 33.0038L53.428 32.5863Z" fill="white" fill-opacity="0.1" />
    <path d="M37.6019 10.8749L38.7548 10.4574V8.47417H37.9163L37.6019 9.51798L36.5538 9.62236V10.6662L37.6019 10.8749Z" fill="white" fill-opacity="0.1" />
    <path d="M72.6077 31.6469L72.0837 31.0206L70.302 31.3337L69.3587 32.5863L67.577 33.4213L67.7866 36.4484H70.9308L71.8741 37.1791L74.2847 37.701L75.6471 36.0309V33.9432L74.2847 31.0206L73.551 30.7074V31.8556L72.6077 31.6469Z" fill="white" fill-opacity="0.1" />
    <path d="M74.8086 13.9021L75.3326 15.2591L74.1798 18.0773L74.8086 19.2255H75.6471L77.0096 16.8248L76.5903 13.9021L75.6471 13.3802L74.8086 13.9021Z" fill="white" fill-opacity="0.1" />
    <path d="M77.4288 35.7177L76.7999 36.6572L76.1711 37.701L74.1798 39.2667L74.599 40.3105H76.2759L77.0096 38.0141L78.3721 36.8659L77.4288 35.7177Z" fill="white" fill-opacity="0.1" />
</svg>