<svg xmlns="http://www.w3.org/2000/svg" xmlns:xlink="http://www.w3.org/1999/xlink" width="1920" zoomAndPan="magnify" viewBox="0 0 1440 809.999993" height="1080" preserveAspectRatio="xMidYMid meet" version="1.0"><defs><g/><clipPath id="44f6f00f2d"><path d="M 675 610.691406 L 689 610.691406 L 689 616 L 675 616 Z M 675 610.691406 " clip-rule="nonzero"/></clipPath><clipPath id="ad598eb7f1"><path d="M 694 610.691406 L 710 610.691406 L 710 616 L 694 616 Z M 694 610.691406 " clip-rule="nonzero"/></clipPath><clipPath id="ff0e4332f9"><path d="M 735 610.691406 L 750 610.691406 L 750 616 L 735 616 Z M 735 610.691406 " clip-rule="nonzero"/></clipPath><clipPath id="fede8705f4"><path d="M 715 610.691406 L 727 610.691406 L 727 615 L 715 615 Z M 715 610.691406 " clip-rule="nonzero"/></clipPath><clipPath id="bb5adcefe7"><path d="M 221 610.691406 L 235 610.691406 L 235 616 L 221 616 Z M 221 610.691406 " clip-rule="nonzero"/></clipPath><clipPath id="1d67b3725c"><path d="M 240 610.691406 L 256 610.691406 L 256 616 L 240 616 Z M 240 610.691406 " clip-rule="nonzero"/></clipPath><clipPath id="730fd07f71"><path d="M 281 610.691406 L 296 610.691406 L 296 616 L 281 616 Z M 281 610.691406 " clip-rule="nonzero"/></clipPath><clipPath id="1b5844b5ea"><path d="M 261 610.691406 L 273 610.691406 L 273 615 L 261 615 Z M 261 610.691406 " clip-rule="nonzero"/></clipPath><clipPath id="a071045364"><path d="M 408.378906 610 L 631.878906 610 L 631.878906 640.675781 L 408.378906 640.675781 Z M 408.378906 610 " clip-rule="nonzero"/></clipPath><clipPath id="3f72bad99e"><path d="M 408.378906 585.175781 L 631.878906 585.175781 L 631.878906 638 L 408.378906 638 Z M 408.378906 585.175781 " clip-rule="nonzero"/></clipPath></defs><g clip-path="url(#44f6f00f2d)"><path fill="#493423" d="M 683.128906 615.671875 C 682.265625 615.671875 681.398438 615.726562 680.539062 615.644531 C 680.117188 615.605469 679.664062 615.363281 679.351562 615.078125 C 679.066406 614.820312 678.863281 614.707031 678.582031 614.972656 C 677.691406 615.816406 676.960938 614.941406 676.21875 614.683594 C 676 614.609375 675.851562 613.996094 675.867188 613.640625 C 675.878906 613.410156 676.21875 613.070312 676.460938 613.015625 C 677.527344 612.757812 678.453125 612.125 679.4375 611.769531 C 681.785156 610.917969 684.222656 610.109375 686.734375 611.300781 C 687.144531 611.492188 687.582031 611.71875 687.875 612.050781 C 688.101562 612.320312 688.246094 612.78125 688.207031 613.128906 C 688.035156 614.425781 686.8125 615.550781 685.476562 615.65625 C 684.699219 615.71875 683.90625 615.664062 683.128906 615.664062 Z M 683.128906 615.671875 " fill-opacity="1" fill-rule="nonzero"/></g><g clip-path="url(#ad598eb7f1)"><path fill="#493423" d="M 707.609375 614.027344 C 707.644531 614.261719 707.636719 614.511719 707.722656 614.722656 C 708.015625 615.378906 707.683594 615.621094 707.117188 615.636719 C 704.4375 615.710938 701.796875 615.386719 699.183594 614.84375 C 698.820312 614.773438 698.398438 614.640625 698.074219 614.746094 C 697.046875 615.078125 696.210938 614.59375 695.347656 614.222656 C 695.167969 614.140625 694.957031 613.898438 694.949219 613.71875 C 694.941406 613.535156 695.113281 613.226562 695.28125 613.160156 C 696.292969 612.75 697.304688 612.238281 698.367188 612.035156 C 700.699219 611.589844 703.0625 611.300781 705.410156 610.984375 C 706.03125 610.902344 706.679688 610.917969 707.304688 611.007812 C 708.378906 611.152344 708.945312 611.777344 709.148438 612.878906 C 709.253906 613.460938 709.003906 613.792969 708.257812 613.988281 C 708.03125 614.042969 707.789062 614.050781 707.554688 614.082031 C 707.757812 613.761719 707.976562 613.445312 708.160156 613.121094 C 708.257812 612.949219 708.316406 612.765625 708.386719 612.585938 C 708.097656 612.523438 707.804688 612.382812 707.523438 612.40625 C 707.402344 612.417969 707.207031 612.773438 707.230469 612.941406 C 707.296875 613.316406 707.472656 613.671875 707.609375 614.027344 Z M 707.609375 614.027344 " fill-opacity="1" fill-rule="nonzero"/></g><g clip-path="url(#ff0e4332f9)"><path fill="#493423" d="M 742.816406 615.21875 C 741.238281 614.496094 739.386719 615.191406 737.808594 614.207031 C 737.515625 614.027344 736.917969 614.414062 736.480469 614.359375 C 736.148438 614.320312 735.703125 614.042969 735.589844 613.769531 C 735.476562 613.476562 735.597656 612.984375 735.800781 612.699219 C 736.011719 612.40625 736.4375 612.085938 736.753906 612.09375 C 737.902344 612.132812 739.003906 611.316406 740.171875 611.929688 C 741.011719 611.605469 742.007812 612.199219 742.800781 611.386719 C 743.09375 611.089844 743.675781 611.074219 744.121094 610.925781 C 745.050781 610.628906 745.820312 610.652344 746.179688 611.800781 C 746.300781 612.191406 746.582031 612.125 746.859375 611.808594 C 747.625 610.925781 748.703125 610.878906 749.351562 611.695312 C 749.519531 611.914062 749.652344 612.328125 749.5625 612.5625 C 749.3125 613.234375 748.9375 613.921875 748.195312 614.101562 C 746.421875 614.519531 744.640625 614.84375 742.816406 615.21875 Z M 742.816406 615.21875 " fill-opacity="1" fill-rule="nonzero"/></g><g clip-path="url(#fede8705f4)"><path fill="#493423" d="M 723.476562 614.804688 C 721.746094 615 720.039062 614.910156 718.355469 614.707031 C 717.445312 614.601562 716.53125 614.277344 715.699219 613.890625 C 715.050781 613.589844 715.019531 612.851562 715.480469 612.292969 C 715.625 612.109375 715.769531 611.875 715.964844 611.785156 C 717.859375 610.976562 719.828125 610.261719 721.859375 611.046875 C 722.441406 611.273438 722.789062 611.265625 723.316406 611.105469 C 724.253906 610.820312 725.1875 611 726.078125 611.394531 C 726.636719 611.648438 726.976562 612.09375 726.976562 612.675781 C 726.976562 613.242188 726.707031 613.800781 726.148438 614.003906 C 725.273438 614.335938 724.367188 614.546875 723.476562 614.804688 Z M 723.476562 614.804688 " fill-opacity="1" fill-rule="nonzero"/></g><path fill="#493423" d="M 766.441406 615.847656 C 764.140625 615.363281 761.835938 614.894531 759.542969 614.390625 C 759.242188 614.328125 758.9375 614.164062 758.710938 613.960938 C 758.507812 613.777344 758.28125 613.46875 758.296875 613.234375 C 758.320312 612.976562 758.605469 612.730469 758.78125 612.488281 C 758.824219 612.433594 758.921875 612.417969 758.992188 612.382812 C 759.851562 612.042969 760.976562 613.402344 761.671875 611.972656 C 762.652344 611.71875 763.625 611.363281 764.621094 611.242188 C 765.460938 611.136719 766.335938 611.25 767.195312 611.332031 C 768.222656 611.429688 768.910156 612.109375 769.410156 612.933594 C 769.636719 613.308594 769.792969 613.832031 769.726562 614.246094 C 769.6875 614.503906 769.128906 614.640625 768.871094 614.910156 C 768.199219 615.597656 767.378906 615.726562 766.441406 615.847656 Z M 766.625 614.738281 C 766.886719 614.171875 767.152344 613.867188 767.152344 613.550781 C 767.152344 613.089844 766.738281 612.863281 766.320312 613 C 766.109375 613.070312 765.839844 613.476562 765.882812 613.664062 C 765.953125 613.980469 766.253906 614.230469 766.625 614.738281 Z M 766.625 614.738281 " fill-opacity="1" fill-rule="nonzero"/><path fill="#493423" d="M 780.835938 611.953125 C 782.203125 612.066406 783.164062 612.050781 784.089844 612.253906 C 784.761719 612.398438 785.417969 612.730469 785.992188 613.121094 C 786.65625 613.574219 786.515625 614.707031 785.796875 615.128906 C 785.53125 615.28125 785.179688 615.28125 784.90625 615.429688 C 784.308594 615.742188 783.75 615.636719 783.101562 615.550781 C 782.605469 615.476562 782.023438 616.027344 781.472656 616.292969 C 781.410156 616.328125 781.3125 616.34375 781.238281 616.316406 C 779.757812 615.839844 778.261719 615.410156 776.820312 614.84375 C 776.21875 614.609375 776.203125 613.96875 776.679688 613.46875 C 776.996094 613.136719 777.371094 612.738281 777.78125 612.617188 C 778.90625 612.292969 780.074219 612.109375 780.835938 611.953125 Z M 780.835938 611.953125 " fill-opacity="1" fill-rule="nonzero"/><path fill="#493423" d="M 820.605469 616.78125 C 819.523438 616.640625 818.421875 616.554688 817.34375 616.335938 C 816.746094 616.214844 816.164062 615.90625 815.628906 615.589844 C 815.117188 615.289062 815.144531 614.511719 815.636719 614.207031 C 816.035156 613.953125 816.480469 613.777344 816.890625 613.550781 C 817.621094 613.152344 818.40625 613.4375 819.117188 613.332031 C 819.820312 613.234375 820.519531 612.625 821.3125 612.699219 C 822.167969 612.789062 823.011719 613 823.851562 613.203125 C 824.429688 613.339844 824.761719 613.742188 824.960938 614.320312 C 825.238281 615.113281 825.15625 615.476562 824.484375 615.914062 C 823.496094 616.5625 822.65625 616.730469 820.605469 616.78125 Z M 820.605469 616.78125 " fill-opacity="1" fill-rule="nonzero"/><path fill="#493423" d="M 661.757812 612.269531 C 663.425781 612.449219 664.679688 612.5625 665.925781 612.730469 C 666.738281 612.84375 667.042969 613.566406 666.785156 614.320312 C 666.308594 615.695312 664.511719 616.292969 663.257812 615.90625 C 662.1875 615.574219 661.085938 615.417969 660.082031 615.445312 C 659.054688 615.460938 658.179688 614.84375 657.152344 615.03125 C 656.878906 615.085938 656.449219 614.691406 656.230469 614.398438 C 656.109375 614.246094 656.261719 613.875 656.308594 613.605469 C 656.320312 613.558594 656.441406 613.523438 656.511719 613.507812 C 658.390625 613.0625 660.269531 612.617188 661.757812 612.269531 Z M 661.757812 612.269531 " fill-opacity="1" fill-rule="nonzero"/><path fill="#493423" d="M 841.6875 616.8125 C 839.414062 616.625 837.4375 616.660156 835.566406 615.921875 C 834.96875 615.679688 834.863281 615.324219 835.324219 614.878906 C 835.65625 614.5625 836.019531 614.1875 836.433594 614.058594 C 838.953125 613.265625 841.535156 613.242188 844.117188 613.664062 C 844.707031 613.761719 845.402344 613.914062 845.515625 614.707031 C 845.605469 615.339844 845.183594 616.027344 844.359375 616.285156 C 843.394531 616.578125 842.382812 616.683594 841.6875 616.8125 Z M 841.6875 616.8125 " fill-opacity="1" fill-rule="nonzero"/><path fill="#493423" d="M 801.46875 613.613281 C 802.207031 613.21875 803.378906 614.058594 804.609375 613.5 C 805.378906 613.152344 806.269531 613.785156 806.984375 614.285156 C 807.085938 614.359375 807.183594 614.5625 807.160156 614.683594 C 807.144531 614.804688 807 614.957031 806.871094 615.007812 C 805.628906 615.492188 804.058594 615.417969 802.402344 614.84375 C 802.214844 614.78125 801.972656 614.796875 801.769531 614.84375 C 801.082031 615.007812 800.402344 615.234375 799.703125 615.363281 C 799.332031 615.4375 798.894531 615.453125 798.546875 615.339844 C 797.914062 615.128906 797.324219 614.796875 796.71875 614.511719 C 797.042969 613.5 798.003906 613.792969 798.683594 613.640625 C 799.460938 613.484375 800.273438 613.613281 801.46875 613.613281 Z M 801.46875 613.613281 " fill-opacity="1" fill-rule="nonzero"/><g clip-path="url(#bb5adcefe7)"><path fill="#493423" d="M 229.140625 615.671875 C 228.273438 615.671875 227.40625 615.726562 226.550781 615.644531 C 226.128906 615.605469 225.675781 615.363281 225.359375 615.078125 C 225.078125 614.820312 224.875 614.707031 224.589844 614.972656 C 223.699219 615.816406 222.972656 614.941406 222.226562 614.683594 C 222.007812 614.609375 221.863281 613.996094 221.878906 613.640625 C 221.886719 613.410156 222.226562 613.070312 222.46875 613.015625 C 223.539062 612.757812 224.460938 612.125 225.449219 611.769531 C 227.796875 610.917969 230.234375 610.109375 232.742188 611.300781 C 233.15625 611.492188 233.59375 611.71875 233.882812 612.050781 C 234.109375 612.320312 234.257812 612.78125 234.214844 613.128906 C 234.046875 614.425781 232.824219 615.550781 231.488281 615.65625 C 230.710938 615.71875 229.917969 615.664062 229.140625 615.664062 Z M 229.140625 615.671875 " fill-opacity="1" fill-rule="nonzero"/></g><g clip-path="url(#1d67b3725c)"><path fill="#493423" d="M 253.621094 614.027344 C 253.652344 614.261719 253.644531 614.511719 253.734375 614.722656 C 254.027344 615.378906 253.695312 615.621094 253.128906 615.636719 C 250.449219 615.710938 247.808594 615.386719 245.195312 614.84375 C 244.828125 614.773438 244.410156 614.640625 244.085938 614.746094 C 243.054688 615.078125 242.222656 614.59375 241.355469 614.222656 C 241.179688 614.140625 240.96875 613.898438 240.960938 613.71875 C 240.953125 613.535156 241.121094 613.226562 241.292969 613.160156 C 242.304688 612.75 243.316406 612.238281 244.375 612.035156 C 246.707031 611.589844 249.070312 611.300781 251.417969 610.984375 C 252.042969 610.902344 252.691406 610.917969 253.3125 611.007812 C 254.390625 611.152344 254.957031 611.777344 255.160156 612.878906 C 255.265625 613.460938 255.011719 613.792969 254.269531 613.988281 C 254.042969 614.042969 253.800781 614.050781 253.5625 614.082031 C 253.765625 613.761719 253.984375 613.445312 254.171875 613.121094 C 254.269531 612.949219 254.324219 612.765625 254.398438 612.585938 C 254.105469 612.523438 253.816406 612.382812 253.53125 612.40625 C 253.410156 612.417969 253.214844 612.773438 253.242188 612.941406 C 253.304688 613.316406 253.484375 613.671875 253.621094 614.027344 Z M 253.621094 614.027344 " fill-opacity="1" fill-rule="nonzero"/></g><g clip-path="url(#730fd07f71)"><path fill="#493423" d="M 288.828125 615.21875 C 287.25 614.496094 285.394531 615.191406 283.816406 614.207031 C 283.527344 614.027344 282.925781 614.414062 282.488281 614.359375 C 282.15625 614.320312 281.710938 614.042969 281.597656 613.769531 C 281.484375 613.476562 281.605469 612.984375 281.808594 612.699219 C 282.019531 612.40625 282.449219 612.085938 282.765625 612.09375 C 283.914062 612.132812 285.015625 611.316406 286.179688 611.929688 C 287.023438 611.605469 288.019531 612.199219 288.8125 611.386719 C 289.101562 611.089844 289.6875 611.074219 290.132812 610.925781 C 291.0625 610.628906 291.832031 610.652344 292.1875 611.800781 C 292.308594 612.191406 292.59375 612.125 292.867188 611.808594 C 293.636719 610.925781 294.714844 610.878906 295.359375 611.695312 C 295.53125 611.914062 295.660156 612.328125 295.570312 612.5625 C 295.320312 613.234375 294.949219 613.921875 294.203125 614.101562 C 292.429688 614.519531 290.648438 614.84375 288.828125 615.21875 Z M 288.828125 615.21875 " fill-opacity="1" fill-rule="nonzero"/></g><g clip-path="url(#1b5844b5ea)"><path fill="#493423" d="M 269.488281 614.804688 C 267.753906 615 266.046875 614.910156 264.363281 614.707031 C 263.457031 614.601562 262.542969 614.277344 261.707031 613.890625 C 261.0625 613.589844 261.027344 612.851562 261.488281 612.292969 C 261.636719 612.109375 261.78125 611.875 261.976562 611.785156 C 263.871094 610.976562 265.835938 610.261719 267.867188 611.046875 C 268.453125 611.273438 268.800781 611.265625 269.324219 611.105469 C 270.265625 610.820312 271.195312 611 272.085938 611.394531 C 272.644531 611.648438 272.984375 612.09375 272.984375 612.675781 C 272.984375 613.242188 272.71875 613.800781 272.160156 614.003906 C 271.285156 614.335938 270.378906 614.546875 269.488281 614.804688 Z M 269.488281 614.804688 " fill-opacity="1" fill-rule="nonzero"/></g><path fill="#493423" d="M 312.449219 615.847656 C 310.152344 615.363281 307.84375 614.894531 305.554688 614.390625 C 305.253906 614.328125 304.945312 614.164062 304.71875 613.960938 C 304.515625 613.777344 304.289062 613.46875 304.304688 613.234375 C 304.332031 612.976562 304.613281 612.730469 304.792969 612.488281 C 304.832031 612.433594 304.929688 612.417969 305.003906 612.382812 C 305.859375 612.042969 306.984375 613.402344 307.683594 611.972656 C 308.660156 611.71875 309.632812 611.363281 310.628906 611.242188 C 311.472656 611.136719 312.34375 611.25 313.203125 611.332031 C 314.230469 611.429688 314.917969 612.109375 315.421875 612.933594 C 315.648438 613.308594 315.800781 613.832031 315.738281 614.246094 C 315.695312 614.503906 315.136719 614.640625 314.878906 614.910156 C 314.207031 615.597656 313.390625 615.726562 312.449219 615.847656 Z M 312.636719 614.738281 C 312.894531 614.171875 313.164062 613.867188 313.164062 613.550781 C 313.164062 613.089844 312.75 612.863281 312.328125 613 C 312.117188 613.070312 311.851562 613.476562 311.890625 613.664062 C 311.964844 613.980469 312.265625 614.230469 312.636719 614.738281 Z M 312.636719 614.738281 " fill-opacity="1" fill-rule="nonzero"/><path fill="#493423" d="M 326.84375 611.953125 C 328.210938 612.066406 329.175781 612.050781 330.097656 612.253906 C 330.769531 612.398438 331.425781 612.730469 332 613.121094 C 332.664062 613.574219 332.527344 614.707031 331.804688 615.128906 C 331.539062 615.28125 331.191406 615.28125 330.917969 615.429688 C 330.316406 615.742188 329.757812 615.636719 329.109375 615.550781 C 328.617188 615.476562 328.035156 616.027344 327.484375 616.292969 C 327.417969 616.328125 327.320312 616.34375 327.25 616.316406 C 325.765625 615.839844 324.269531 615.410156 322.828125 614.84375 C 322.230469 614.609375 322.214844 613.96875 322.691406 613.46875 C 323.007812 613.136719 323.378906 612.738281 323.792969 612.617188 C 324.917969 612.292969 326.082031 612.109375 326.84375 611.953125 Z M 326.84375 611.953125 " fill-opacity="1" fill-rule="nonzero"/><path fill="#493423" d="M 366.617188 616.78125 C 365.53125 616.640625 364.429688 616.554688 363.355469 616.335938 C 362.753906 616.214844 362.171875 615.90625 361.636719 615.589844 C 361.128906 615.289062 361.152344 614.511719 361.644531 614.207031 C 362.042969 613.953125 362.488281 613.777344 362.902344 613.550781 C 363.628906 613.152344 364.414062 613.4375 365.128906 613.332031 C 365.832031 613.234375 366.527344 612.625 367.320312 612.699219 C 368.179688 612.789062 369.019531 613 369.863281 613.203125 C 370.4375 613.339844 370.769531 613.742188 370.972656 614.320312 C 371.246094 615.113281 371.167969 615.476562 370.496094 615.914062 C 369.507812 616.5625 368.664062 616.730469 366.617188 616.78125 Z M 366.617188 616.78125 " fill-opacity="1" fill-rule="nonzero"/><path fill="#493423" d="M 207.769531 612.269531 C 209.4375 612.449219 210.691406 612.5625 211.9375 612.730469 C 212.746094 612.84375 213.054688 613.566406 212.796875 614.320312 C 212.316406 615.695312 210.519531 616.292969 209.265625 615.90625 C 208.199219 615.574219 207.097656 615.417969 206.09375 615.445312 C 205.0625 615.460938 204.191406 614.84375 203.160156 615.03125 C 202.886719 615.085938 202.457031 614.691406 202.238281 614.398438 C 202.117188 614.246094 202.273438 613.875 202.320312 613.605469 C 202.328125 613.558594 202.449219 613.523438 202.523438 613.507812 C 204.402344 613.0625 206.277344 612.617188 207.769531 612.269531 Z M 207.769531 612.269531 " fill-opacity="1" fill-rule="nonzero"/><path fill="#493423" d="M 387.699219 616.8125 C 385.421875 616.625 383.449219 616.660156 381.578125 615.921875 C 380.976562 615.679688 380.875 615.324219 381.335938 614.878906 C 381.667969 614.5625 382.03125 614.1875 382.445312 614.058594 C 384.960938 613.265625 387.542969 613.242188 390.125 613.664062 C 390.71875 613.761719 391.414062 613.914062 391.527344 614.707031 C 391.617188 615.339844 391.195312 616.027344 390.367188 616.285156 C 389.40625 616.578125 388.394531 616.683594 387.699219 616.8125 Z M 387.699219 616.8125 " fill-opacity="1" fill-rule="nonzero"/><path fill="#493423" d="M 347.480469 613.613281 C 348.214844 613.21875 349.390625 614.058594 350.621094 613.5 C 351.390625 613.152344 352.28125 613.785156 352.992188 614.285156 C 353.097656 614.359375 353.195312 614.5625 353.171875 614.683594 C 353.152344 614.804688 353.007812 614.957031 352.878906 615.007812 C 351.640625 615.492188 350.070312 615.417969 348.410156 614.84375 C 348.222656 614.78125 347.980469 614.796875 347.777344 614.84375 C 347.089844 615.007812 346.410156 615.234375 345.714844 615.363281 C 345.34375 615.4375 344.90625 615.453125 344.558594 615.339844 C 343.925781 615.128906 343.335938 614.796875 342.726562 614.511719 C 343.050781 613.5 344.015625 613.792969 344.695312 613.640625 C 345.472656 613.484375 346.28125 613.613281 347.480469 613.613281 Z M 347.480469 613.613281 " fill-opacity="1" fill-rule="nonzero"/><g clip-path="url(#a071045364)"><path fill="#009245" d="M 631.910156 610.105469 L 631.910156 614.417969 C 631.910156 628.933594 620.140625 640.699219 605.628906 640.699219 L 434.664062 640.699219 C 420.148438 640.699219 408.378906 628.933594 408.378906 614.417969 L 408.378906 610.105469 Z M 631.910156 610.105469 " fill-opacity="1" fill-rule="evenodd"/></g><g clip-path="url(#3f72bad99e)"><path fill="#c1ff72" d="M 434.664062 585.234375 L 605.628906 585.234375 C 620.144531 585.234375 631.914062 597.003906 631.914062 611.519531 C 631.914062 626.035156 620.144531 637.804688 605.628906 637.804688 L 434.664062 637.804688 C 420.148438 637.804688 408.378906 626.035156 408.378906 611.519531 C 408.378906 597.003906 420.148438 585.234375 434.664062 585.234375 Z M 434.664062 585.234375 " fill-opacity="1" fill-rule="nonzero"/></g><g fill="#ffffff" fill-opacity="1"><g transform="translate(477.778878, 621.891735)"><g><path d="M 0.484375 6.703125 C -0.609375 6.703125 -1.5625 6.585938 -2.375 6.359375 L -2.375 2.34375 C -1.539062 2.550781 -0.78125 2.65625 -0.09375 2.65625 C 0.96875 2.65625 1.726562 2.320312 2.1875 1.65625 C 2.644531 1 2.875 -0.03125 2.875 -1.4375 L 2.875 -22.8125 L 7.703125 -22.8125 L 7.703125 -1.46875 C 7.703125 1.195312 7.09375 3.222656 5.875 4.609375 C 4.664062 6.003906 2.867188 6.703125 0.484375 6.703125 Z M 0.484375 6.703125 "/></g></g></g><g fill="#ffffff" fill-opacity="1"><g transform="translate(488.354325, 621.891735)"><g><path d="M 6.28125 -8.75 C 6.28125 -7.019531 6.5625 -5.710938 7.125 -4.828125 C 7.695312 -3.953125 8.625 -3.515625 9.90625 -3.515625 C 11.175781 -3.515625 12.085938 -3.953125 12.640625 -4.828125 C 13.203125 -5.703125 13.484375 -7.007812 13.484375 -8.75 C 13.484375 -10.476562 13.203125 -11.773438 12.640625 -12.640625 C 12.078125 -13.503906 11.15625 -13.9375 9.875 -13.9375 C 8.601562 -13.9375 7.6875 -13.503906 7.125 -12.640625 C 6.5625 -11.785156 6.28125 -10.488281 6.28125 -8.75 Z M 18.34375 -8.75 C 18.34375 -5.914062 17.59375 -3.695312 16.09375 -2.09375 C 14.601562 -0.488281 12.519531 0.3125 9.84375 0.3125 C 8.164062 0.3125 6.6875 -0.0507812 5.40625 -0.78125 C 4.132812 -1.519531 3.15625 -2.570312 2.46875 -3.9375 C 1.78125 -5.3125 1.4375 -6.914062 1.4375 -8.75 C 1.4375 -11.601562 2.175781 -13.816406 3.65625 -15.390625 C 5.144531 -16.972656 7.238281 -17.765625 9.9375 -17.765625 C 11.613281 -17.765625 13.085938 -17.398438 14.359375 -16.671875 C 15.640625 -15.953125 16.625 -14.910156 17.3125 -13.546875 C 18 -12.179688 18.34375 -10.582031 18.34375 -8.75 Z M 18.34375 -8.75 "/></g></g></g><g fill="#ffffff" fill-opacity="1"><g transform="translate(508.132594, 621.891735)"><g><path d="M 14.859375 0 L 14.21875 -2.234375 L 13.96875 -2.234375 C 13.457031 -1.421875 12.734375 -0.789062 11.796875 -0.34375 C 10.859375 0.09375 9.789062 0.3125 8.59375 0.3125 C 6.539062 0.3125 4.992188 -0.234375 3.953125 -1.328125 C 2.921875 -2.429688 2.40625 -4.007812 2.40625 -6.0625 L 2.40625 -17.4375 L 7.15625 -17.4375 L 7.15625 -7.25 C 7.15625 -5.988281 7.378906 -5.046875 7.828125 -4.421875 C 8.273438 -3.796875 8.988281 -3.484375 9.96875 -3.484375 C 11.300781 -3.484375 12.265625 -3.925781 12.859375 -4.8125 C 13.453125 -5.695312 13.75 -7.171875 13.75 -9.234375 L 13.75 -17.4375 L 18.5 -17.4375 L 18.5 0 Z M 14.859375 0 "/></g></g></g><g fill="#ffffff" fill-opacity="1"><g transform="translate(529.127508, 621.891735)"><g><path d="M 9.71875 -14.390625 C 8.707031 -14.390625 7.914062 -14.066406 7.34375 -13.421875 C 6.769531 -12.785156 6.441406 -11.878906 6.359375 -10.703125 L 13.046875 -10.703125 C 13.023438 -11.878906 12.71875 -12.785156 12.125 -13.421875 C 11.53125 -14.066406 10.726562 -14.390625 9.71875 -14.390625 Z M 10.390625 0.3125 C 7.578125 0.3125 5.378906 -0.460938 3.796875 -2.015625 C 2.222656 -3.566406 1.4375 -5.757812 1.4375 -8.59375 C 1.4375 -11.519531 2.164062 -13.78125 3.625 -15.375 C 5.082031 -16.96875 7.101562 -17.765625 9.6875 -17.765625 C 12.15625 -17.765625 14.070312 -17.0625 15.4375 -15.65625 C 16.8125 -14.257812 17.5 -12.320312 17.5 -9.84375 L 17.5 -7.53125 L 6.25 -7.53125 C 6.300781 -6.175781 6.703125 -5.117188 7.453125 -4.359375 C 8.203125 -3.609375 9.253906 -3.234375 10.609375 -3.234375 C 11.660156 -3.234375 12.65625 -3.34375 13.59375 -3.5625 C 14.53125 -3.78125 15.503906 -4.128906 16.515625 -4.609375 L 16.515625 -0.921875 C 15.691406 -0.503906 14.804688 -0.195312 13.859375 0 C 12.910156 0.207031 11.753906 0.3125 10.390625 0.3125 Z M 10.390625 0.3125 "/></g></g></g><g fill="#ffffff" fill-opacity="1"><g transform="translate(548.001093, 621.891735)"><g><path d="M 12.234375 -17.765625 C 12.878906 -17.765625 13.414062 -17.71875 13.84375 -17.625 L 13.484375 -13.171875 C 13.097656 -13.273438 12.628906 -13.328125 12.078125 -13.328125 C 10.554688 -13.328125 9.367188 -12.9375 8.515625 -12.15625 C 7.671875 -11.375 7.25 -10.28125 7.25 -8.875 L 7.25 0 L 2.5 0 L 2.5 -17.4375 L 6.09375 -17.4375 L 6.796875 -14.515625 L 7.03125 -14.515625 C 7.570312 -15.492188 8.300781 -16.28125 9.21875 -16.875 C 10.144531 -17.46875 11.148438 -17.765625 12.234375 -17.765625 Z M 12.234375 -17.765625 "/></g></g></g></svg>